# xmcd
#
# Track frame offsets:
#	150
#	31827
#	60620
#	87857
#	107357
#	129167
#	160130
#	184135
#	210432
#	232212
#
# Disc length: 3363 seconds
#
# Revision: 1
# Processed by: cddbd v1.4PL0 Copyright (c) Steve Scherf et al.
# Submitted via: audiograbber 1.81.03
#
DISCID=770d210a
DTITLE=Various Artist - Blues Moods (ED CD 7050)
DYEAR=1997
DGENRE=Blues
TTITLE0=Carey Bell - Must I Holler
TTITLE1=Hubert Sumlin's Blues Pary Ft Mighty Sam McClain - A Soul That's Been A
TTITLE1=bused
TTITLE2=Love Dogs - Learned To Live Without You
TTITLE3=Marcia Ball - Find Another Fool
TTITLE4=Ronnie Earl and The Broadcasters - Ships Passing In The Night
TTITLE5=Deitra Farr - Taking The Long Way Home
TTITLE6=Sugar Ray ft The Bluetones - Moment Of Passion
TTITLE7=Byther Smith - 35 Long Years
TTITLE8=Mike Morgan and The Crawl - I Let Her Slip Right Through My Hands
TTITLE9=Guitar Shorty - You Left Me Dreaming
EXTD=
EXTT0=
EXTT1=
EXTT2=
EXTT3=
EXTT4=
EXTT5=
EXTT6=
EXTT7=
EXTT8=
EXTT9=
PLAYORDER=
